<svg xmlns="http://www.w3.org/2000/svg" width="512" height="512" viewBox="150 190 960 960" preserveAspectRatio="xMidYMid meet">
<path fill="#FEFEFE" opacity="1.000000" stroke="none" 
	d="
M837.000000,1255.000000 
	C558.000000,1255.000000 279.500000,1255.000000 1.000000,1255.000000 
	C1.000000,837.000000 1.000000,419.000000 1.000000,1.000000 
	C419.000000,1.000000 837.000000,1.000000 1255.000000,1.000000 
	C1255.000000,419.000000 1255.000000,837.000000 1255.000000,1255.000000 
	C1115.833374,1255.000000 976.666687,1255.000000 837.000000,1255.000000 
M893.010254,578.500000 
	C893.018860,513.010864 893.112610,447.521454 892.932861,382.032837 
	C892.909241,373.423553 892.252930,364.666809 890.588989,356.235046 
	C878.296204,293.944794 824.901794,250.154922 761.420776,250.135315 
	C621.111084,250.091980 480.801422,250.125198 340.491730,250.164505 
	C319.798859,250.170303 300.084106,254.834824 281.967010,264.740967 
	C234.956253,290.445679 210.786804,330.846222 210.535889,383.942474 
	C209.861008,526.748352 210.324951,669.559509 210.275177,812.368530 
	C210.267487,834.409790 214.649582,855.443909 225.057571,874.876892 
	C249.376617,920.283630 287.060852,946.525574 338.931610,946.839966 
	C480.735626,947.699463 622.548462,947.160889 764.357605,946.980713 
	C772.953186,946.969849 781.714844,946.031311 790.114075,944.209595 
	C849.058716,931.425598 893.033081,876.409241 893.025391,815.960022 
	C893.015320,737.140015 893.013916,658.320007 893.010254,578.500000 
M943.526184,958.032104 
	C960.919250,932.574402 969.955261,904.503601 969.955811,873.598755 
	C969.958252,728.942688 970.002075,584.286621 969.887695,439.630585 
	C969.880371,430.347351 969.405334,420.941345 967.878174,411.804626 
	C962.373291,378.868805 946.211548,353.110352 915.794067,337.546204 
	C912.236450,335.725830 908.384949,334.479767 903.469299,332.478912 
	C908.717712,349.111053 910.858643,364.720276 910.864563,380.566467 
	C910.918884,526.222534 910.985901,671.878784 910.809875,817.534607 
	C910.779846,842.377075 905.148987,866.132996 892.649170,887.820007 
	C863.616943,938.190857 820.388367,965.659302 761.767273,965.825378 
	C621.111938,966.223816 480.454712,966.004761 339.798370,965.872375 
	C330.929565,965.864075 322.062073,964.459534 312.484253,963.644104 
	C313.433594,965.515503 313.971252,967.076233 314.909607,968.339294 
	C319.171204,974.075256 323.101929,980.142090 327.956665,985.337769 
	C348.612457,1007.444702 374.656403,1018.651245 404.457001,1020.751099 
	C419.883636,1021.838135 435.440094,1021.147156 450.937897,1021.149414 
	C576.428833,1021.167847 701.919983,1021.271240 827.410217,1020.974182 
	C838.929626,1020.946899 850.814697,1019.668091 861.889587,1016.633362 
	C895.887634,1007.317322 922.807007,987.434753 943.526184,958.032104 
M410.651550,1039.976685 
	C402.703339,1039.038208 394.755127,1038.099854 386.806915,1037.161377 
	C386.526642,1037.525879 386.246399,1037.890381 385.966125,1038.254883 
	C391.179901,1044.172852 395.767822,1050.827759 401.716705,1055.880249 
	C426.364563,1076.813965 455.322784,1086.853149 487.480408,1086.894653 
	C619.621277,1087.065430 751.762756,1087.090088 883.903015,1086.767334 
	C896.381409,1086.736694 909.158813,1085.134521 921.269653,1082.132812 
	C956.164246,1073.484009 985.068176,1054.875732 1008.361938,1027.310913 
	C1032.838013,998.346863 1045.710815,964.928040 1045.805054,927.270874 
	C1046.167358,782.466553 1045.993164,637.660645 1045.866821,492.855530 
	C1045.859009,483.933533 1045.232056,474.892059 1043.701050,466.114105 
	C1039.319458,440.989990 1029.105347,418.884735 1008.311951,402.856415 
	C1000.210632,396.611603 991.546021,391.362823 981.927734,388.392059 
	C983.650635,398.691803 986.167725,408.568207 986.780212,418.561340 
	C987.807007,435.314423 987.719543,452.140930 987.888489,468.938660 
	C987.945068,474.566711 987.068542,480.203766 987.116760,485.832397 
	C987.216797,497.501495 987.918213,509.168488 987.883545,520.834900 
	C987.833130,537.798523 987.234802,554.759949 987.110107,571.724121 
	C987.060181,578.519714 987.810120,585.317627 987.906677,592.118652 
	C988.052307,602.380005 988.053223,612.646606 987.906433,622.907898 
	C987.806702,629.875549 987.149963,636.836365 987.091492,643.803162 
	C986.962097,659.231018 986.945129,674.661682 987.091614,690.089233 
	C987.189331,700.388367 987.902588,710.684692 987.879883,720.981262 
	C987.851624,733.778809 987.103027,746.575562 987.112732,759.372314 
	C987.124695,775.169128 987.762939,790.965210 987.811829,806.762512 
	C987.844910,817.444092 987.108154,828.127563 987.119385,838.809753 
	C987.130493,849.371704 988.000610,859.938416 987.839783,870.493103 
	C987.696106,879.926758 986.896301,889.370117 985.968811,898.768066 
	C984.053040,918.180786 977.957886,936.428650 969.037537,953.639038 
	C958.572754,973.829285 943.857788,990.652588 926.411438,1005.186523 
	C898.619141,1028.339355 866.466187,1039.833130 830.537292,1039.889893 
	C690.898010,1040.110962 551.258240,1039.978638 410.651550,1039.976685 
z"/>
<path fill="#FECA2D" opacity="1.000000" stroke="none" 
	d="
M893.009521,579.000000 
	C893.013916,658.320007 893.015320,737.140015 893.025391,815.960022 
	C893.033081,876.409241 849.058716,931.425598 790.114075,944.209595 
	C781.714844,946.031311 772.953186,946.969849 764.357605,946.980713 
	C622.548462,947.160889 480.735626,947.699463 338.931610,946.839966 
	C287.060852,946.525574 249.376617,920.283630 225.057571,874.876892 
	C214.649582,855.443909 210.267487,834.409790 210.275177,812.368530 
	C210.324951,669.559509 209.861008,526.748352 210.535889,383.942474 
	C210.786804,330.846222 234.956253,290.445679 281.967010,264.740967 
	C300.084106,254.834824 319.798859,250.170303 340.491730,250.164505 
	C480.801422,250.125198 621.111084,250.091980 761.420776,250.135315 
	C824.901794,250.154922 878.296204,293.944794 890.588989,356.235046 
	C892.252930,364.666809 892.909241,373.423553 892.932861,382.032837 
	C893.112610,447.521454 893.018860,513.010864 893.009521,579.000000 
M266.775787,347.361328 
	C262.062683,357.800568 259.103516,368.709564 259.099426,380.188934 
	C259.047668,526.007446 258.954224,671.826111 259.149078,817.644287 
	C259.206726,860.799683 295.691162,896.999207 338.827667,897.032837 
	C480.813202,897.143555 622.799011,897.138123 764.784424,896.986572 
	C808.207642,896.940247 844.853455,860.169312 844.881958,816.821838 
	C844.977112,672.169922 844.925842,527.517944 844.890869,382.865967 
	C844.890015,379.217987 844.581482,375.552216 844.157410,371.924988 
	C839.371521,330.986694 804.927185,300.295837 763.755249,300.288940 
	C623.436340,300.265381 483.117432,300.228088 342.798523,300.270844 
	C308.171417,300.281372 283.076324,316.114471 266.775787,347.361328 
z"/>
<path fill="#B6C687" opacity="1.000000" stroke="none" 
	d="
M943.327942,958.332764 
	C922.807007,987.434753 895.887634,1007.317322 861.889587,1016.633362 
	C850.814697,1019.668091 838.929626,1020.946899 827.410217,1020.974182 
	C701.919983,1021.271240 576.428833,1021.167847 450.937897,1021.149414 
	C435.440094,1021.147156 419.883636,1021.838135 404.457001,1020.751099 
	C374.656403,1018.651245 348.612457,1007.444702 327.956665,985.337769 
	C323.101929,980.142090 319.171204,974.075256 314.909607,968.339294 
	C313.971252,967.076233 313.433594,965.515503 312.484253,963.644104 
	C322.062073,964.459534 330.929565,965.864075 339.798370,965.872375 
	C480.454712,966.004761 621.111938,966.223816 761.767273,965.825378 
	C820.388367,965.659302 863.616943,938.190857 892.649170,887.820007 
	C905.148987,866.132996 910.779846,842.377075 910.809875,817.534607 
	C910.985901,671.878784 910.918884,526.222534 910.864563,380.566467 
	C910.858643,364.720276 908.717712,349.111053 903.469299,332.478912 
	C908.384949,334.479767 912.236450,335.725830 915.794067,337.546204 
	C946.211548,353.110352 962.373291,378.868805 967.878174,411.804626 
	C969.405334,420.941345 969.880371,430.347351 969.887695,439.630585 
	C970.002075,584.286621 969.958252,728.942688 969.955811,873.598755 
	C969.955261,904.503601 960.919250,932.574402 943.327942,958.332764 
z"/>
<path fill="#C8DCEE" opacity="1.000000" stroke="none" 
	d="
M411.135101,1039.977295 
	C551.258240,1039.978638 690.898010,1040.110962 830.537292,1039.889893 
	C866.466187,1039.833130 898.619141,1028.339355 926.411438,1005.186523 
	C943.857788,990.652588 958.572754,973.829285 969.037537,953.639038 
	C977.957886,936.428650 984.053040,918.180786 985.968811,898.768066 
	C986.896301,889.370117 987.696106,879.926758 987.839783,870.493103 
	C988.000610,859.938416 987.130493,849.371704 987.119385,838.809753 
	C987.108154,828.127563 987.844910,817.444092 987.811829,806.762512 
	C987.762939,790.965210 987.124695,775.169128 987.112732,759.372314 
	C987.103027,746.575562 987.851624,733.778809 987.879883,720.981262 
	C987.902588,710.684692 987.189331,700.388367 987.091614,690.089233 
	C986.945129,674.661682 986.962097,659.231018 987.091492,643.803162 
	C987.149963,636.836365 987.806702,629.875549 987.906433,622.907898 
	C988.053223,612.646606 988.052307,602.380005 987.906677,592.118652 
	C987.810120,585.317627 987.060181,578.519714 987.110107,571.724121 
	C987.234802,554.759949 987.833130,537.798523 987.883545,520.834900 
	C987.918213,509.168488 987.216797,497.501495 987.116760,485.832397 
	C987.068542,480.203766 987.945068,474.566711 987.888489,468.938660 
	C987.719543,452.140930 987.807007,435.314423 986.780212,418.561340 
	C986.167725,408.568207 983.650635,398.691803 981.927734,388.392059 
	C991.546021,391.362823 1000.210632,396.611603 1008.311951,402.856415 
	C1029.105347,418.884735 1039.319458,440.989990 1043.701050,466.114105 
	C1045.232056,474.892059 1045.859009,483.933533 1045.866821,492.855530 
	C1045.993164,637.660645 1046.167358,782.466553 1045.805054,927.270874 
	C1045.710815,964.928040 1032.838013,998.346863 1008.361938,1027.310913 
	C985.068176,1054.875732 956.164246,1073.484009 921.269653,1082.132812 
	C909.158813,1085.134521 896.381409,1086.736694 883.903015,1086.767334 
	C751.762756,1087.090088 619.621277,1087.065430 487.480408,1086.894653 
	C455.322784,1086.853149 426.364563,1076.813965 401.716705,1055.880249 
	C395.767822,1050.827759 391.179901,1044.172852 385.966125,1038.254883 
	C386.246399,1037.890381 386.526642,1037.525879 386.806915,1037.161377 
	C394.755127,1038.099854 402.703339,1039.038208 411.135101,1039.977295 
z"/>
<path fill="#FEFEFD" opacity="1.000000" stroke="none" 
	d="
M266.937500,347.021729 
	C283.076324,316.114471 308.171417,300.281372 342.798523,300.270844 
	C483.117432,300.228088 623.436340,300.265381 763.755249,300.288940 
	C804.927185,300.295837 839.371521,330.986694 844.157410,371.924988 
	C844.581482,375.552216 844.890015,379.217987 844.890869,382.865967 
	C844.925842,527.517944 844.977112,672.169922 844.881958,816.821838 
	C844.853455,860.169312 808.207642,896.940247 764.784424,896.986572 
	C622.799011,897.138123 480.813202,897.143555 338.827667,897.032837 
	C295.691162,896.999207 259.206726,860.799683 259.149078,817.644287 
	C258.954224,671.826111 259.047668,526.007446 259.099426,380.188934 
	C259.103516,368.709564 262.062683,357.800568 266.937500,347.021729 
M426.090454,361.293152 
	C423.061066,360.660645 420.034546,359.495178 417.001831,359.478882 
	C389.469757,359.330627 361.936615,359.369904 334.403839,359.406921 
	C332.615875,359.409332 330.828522,359.845612 328.315643,360.007050 
	C321.382019,362.086792 317.882172,366.919556 317.683167,373.982666 
	C317.477386,381.285187 317.624542,388.598846 317.677429,395.907196 
	C317.740692,404.645538 323.154877,410.247711 332.025146,410.276825 
	C361.291138,410.372803 390.557861,410.374420 419.823822,410.274902 
	C428.017914,410.247040 433.567871,404.684753 433.781281,396.468079 
	C433.971191,389.156799 434.005280,381.828003 433.718018,374.522278 
	C433.510620,369.247070 432.035065,364.357330 426.090454,361.293152 
M591.374512,449.052887 
	C583.329285,447.758942 575.327820,445.849457 567.231506,445.274200 
	C524.789307,442.258850 485.837250,452.632599 451.461243,477.855621 
	C408.975647,509.028931 383.858002,551.007507 378.388367,603.529724 
	C374.284943,642.932983 383.090942,679.927551 404.035706,713.888062 
	C442.477814,776.219360 513.546814,807.852905 585.176697,794.098267 
	C625.444336,786.366028 659.211731,766.996094 685.136169,735.235535 
	C728.400391,682.231750 739.549927,622.552734 715.414490,558.601501 
	C693.823547,501.392426 651.291687,465.376984 591.374512,449.052887 
M784.609314,374.054260 
	C779.278137,364.028717 771.062561,358.222168 759.646851,357.523621 
	C747.572083,356.784698 737.598816,361.091980 731.341187,371.647034 
	C724.603516,383.011627 725.251282,394.765198 732.709167,405.520630 
	C739.708252,415.614563 749.832947,420.146088 762.148804,418.153748 
	C782.377563,414.881378 793.092957,394.225525 784.609314,374.054260 
z"/>
<path fill="#FEC92D" opacity="1.000000" stroke="none" 
	d="
M591.782104,449.135193 
	C651.291687,465.376984 693.823547,501.392426 715.414490,558.601501 
	C739.549927,622.552734 728.400391,682.231750 685.136169,735.235535 
	C659.211731,766.996094 625.444336,786.366028 585.176697,794.098267 
	C513.546814,807.852905 442.477814,776.219360 404.035706,713.888062 
	C383.090942,679.927551 374.284943,642.932983 378.388367,603.529724 
	C383.858002,551.007507 408.975647,509.028931 451.461243,477.855621 
	C485.837250,452.632599 524.789307,442.258850 567.231506,445.274200 
	C575.327820,445.849457 583.329285,447.758942 591.782104,449.135193 
M444.385162,685.080750 
	C446.649872,688.571838 448.667603,692.255493 451.217133,695.524475 
	C479.878418,732.273376 517.370911,749.944275 564.022827,746.147644 
	C602.753540,742.995667 633.778564,724.772949 655.294189,692.776367 
	C685.342346,648.090881 686.515259,601.477905 658.942078,555.015503 
	C625.614014,498.855743 551.240784,478.612457 494.160645,509.567627 
	C430.409302,544.140686 408.335297,621.128906 444.385162,685.080750 
z"/>
<path fill="#FEC92D" opacity="1.000000" stroke="none" 
	d="
M426.560211,361.912415 
	C432.035065,364.357330 433.510620,369.247070 433.718018,374.522278 
	C434.005280,381.828003 433.971191,389.156799 433.781281,396.468079 
	C433.567871,404.684753 428.017914,410.247040 419.823822,410.274902 
	C390.557861,410.374420 361.291138,410.372803 332.025146,410.276825 
	C323.154877,410.247711 317.740692,404.645538 317.677429,395.907196 
	C317.624542,388.598846 317.477386,381.285187 317.683167,373.982666 
	C317.882172,366.919556 321.382019,362.086792 328.980713,360.323853 
	C331.619446,360.761108 333.592224,360.968140 335.566986,360.989105 
	C365.897888,361.311157 396.229095,361.608978 426.560211,361.912415 
z"/>
<path fill="#FEC92E" opacity="1.000000" stroke="none" 
	d="
M784.769287,374.397644 
	C793.092957,394.225525 782.377563,414.881378 762.148804,418.153748 
	C749.832947,420.146088 739.708252,415.614563 732.709167,405.520630 
	C725.251282,394.765198 724.603516,383.011627 731.341187,371.647034 
	C737.598816,361.091980 747.572083,356.784698 759.646851,357.523621 
	C771.062561,358.222168 779.278137,364.028717 784.769287,374.397644 
z"/>
<path fill="#FDC918" opacity="1.000000" stroke="none" 
	d="
M426.325317,361.602783 
	C396.229095,361.608978 365.897888,361.311157 335.566986,360.989105 
	C333.592224,360.968140 331.619446,360.761108 329.343323,360.360352 
	C330.828522,359.845612 332.615875,359.409332 334.403839,359.406921 
	C361.936615,359.369904 389.469757,359.330627 417.001831,359.478882 
	C420.034546,359.495178 423.061066,360.660645 426.325317,361.602783 
z"/>
<path fill="#FEFEFD" opacity="1.000000" stroke="none" 
	d="
M444.201721,684.765869 
	C408.335297,621.128906 430.409302,544.140686 494.160645,509.567627 
	C551.240784,478.612457 625.614014,498.855743 658.942078,555.015503 
	C686.515259,601.477905 685.342346,648.090881 655.294189,692.776367 
	C633.778564,724.772949 602.753540,742.995667 564.022827,746.147644 
	C517.370911,749.944275 479.878418,732.273376 451.217133,695.524475 
	C448.667603,692.255493 446.649872,688.571838 444.201721,684.765869 
z"/>
</svg>